<?xml version="1.0" encoding="utf-8"?>
<!-- Generator: Adobe Illustrator 19.1.0, SVG Export Plug-In . SVG Version: 6.00 Build 0)  -->
<svg version="1.1"
	 id="Слой_1" xmlns:inkscape="http://www.inkscape.org/namespaces/inkscape" xmlns:rdf="http://www.w3.org/1999/02/22-rdf-syntax-ns#" xmlns:cc="http://creativecommons.org/ns#" xmlns:dc="http://purl.org/dc/elements/1.1/" xmlns:svg="http://www.w3.org/2000/svg" xmlns:sodipodi="http://sodipodi.sourceforge.net/DTD/sodipodi-0.dtd"
	 xmlns="http://www.w3.org/2000/svg" xmlns:xlink="http://www.w3.org/1999/xlink" x="0px" y="0px" viewBox="-247 370.9 100 100"
	 style="enable-background:new -247 370.9 100 100;" xml:space="preserve">
<style type="text/css">
	.st0{fill:#FFFFFF;}
</style>
<g transform="translate(0,-952.36218)">
	<path class="st0" d="M-197.8,1326.8c0,0-0.1,4.9-0.9,7.3c-1.1,3.5-5,5.9-4.6,9.5c0.3,3.3,6.1,6.9,6.1,6.9s4.8-4,5.8-6.8
		c0.8-2.2,0.4-4.8-0.2-7C-192.8,1333-197.8,1326.8-197.8,1326.8z M-197.3,1352.4c-1.6,0-2.9,1.5-2.9,3.4v3.6l6.7-4.3
		c-0.3-1.5-1.5-2.7-2.9-2.7H-197.3z M-193.5,1356.4l-3.7,2.3l-3,2.1v4.9l6.7-4.4V1356.4z M-193.5,1362.8l-6.7,4.2v4h-30.1
		c-0.1,0-0.3,0-0.4,0c-2,0.2-3.6,1.5-3.6,3.2v16.9v6.4c0.6,0.5,1.3,0.9,2.1,1.3c2.6,1.3,5.7,1.9,8.8,1.8c2.8-0.1,5.5-0.9,7.6-2.2
		c2.2-1.3,3.9-3.1,4.7-5.1l0.8-1.9l0.8,1.9c1,2.2,3,4.2,5.6,5.4c2.6,1.3,5.8,1.9,8.8,1.7c2.7-0.2,5.3-1,7.4-2.3
		c2.1-1.3,3.7-3.1,4.6-5l0.8-1.8l0.9,1.7c1.1,2,3,3.9,5.3,5.1c2.3,1.3,5.1,2,8,2.1c2.9,0.1,5.9-0.4,8.5-1.5v-7.6v-16.9
		c0-1.8-1.8-3.2-4-3.2h-30.1v-2.8l-4.4,2.8h-1.9l6.3-4.2V1362.8L-193.5,1362.8z M-198.9,1376.3l3.1,2.8l4-0.9l-1.7,3.8l2.1,3.6
		l-4.2-0.5l-2.8,3.2l-0.8-4.1l-3.8-1.7l3.6-2L-198.9,1376.3L-198.9,1376.3z M-172,1383.5l3.1,2.8l4-0.9l-1.7,3.8l2.1,3.6l-4.2-0.5
		l-2.8,3.1l-0.8-4.1l-3.8-1.7l3.7-2L-172,1383.5L-172,1383.5z M-225.6,1384l3.1,2.9l4.1-0.9l-1.8,3.8l2.1,3.6l-4.1-0.5l-2.8,3.2
		l-0.8-4.1l-3.8-1.7l3.6-2L-225.6,1384L-225.6,1384z M-182,1395c-1,1.6-2.5,3.1-4.4,4.2c-2.4,1.5-5.3,2.3-8.4,2.5
		c-3.5,0.2-7.1-0.4-10-1.8c-2.3-1.1-4.2-2.8-5.5-4.7c-1.1,1.7-2.6,3.2-4.5,4.3c-2.5,1.5-5.5,2.3-8.6,2.5c-3.5,0.2-7-0.5-10-2
		c-0.4-0.2-0.7-0.4-1.1-0.6v10.4v3.2h4h66.9h4v-3.2v-9.5c-2.7,1-5.7,1.5-8.6,1.3c-3.2-0.1-6.3-1-8.9-2.4
		C-179,1398.1-180.7,1396.6-182,1395L-182,1395z M-218.3,1403.3c2.1,0,3.8,1.7,3.8,3.8c0,2.1-1.7,3.7-3.8,3.7
		c-2.1,0-3.7-1.7-3.7-3.7S-220.4,1403.3-218.3,1403.3z M-197.2,1403.5c2.1,0,3.8,1.7,3.8,3.8c0,2.1-1.7,3.7-3.8,3.7
		c-2.1,0-3.7-1.7-3.7-3.7S-199.2,1403.5-197.2,1403.5z M-176,1404.1c2.1,0,3.7,1.7,3.7,3.7c0,2.1-1.7,3.8-3.7,3.8
		c-2.1,0-3.8-1.7-3.8-3.8C-179.8,1405.8-178.1,1404.1-176,1404.1z M-154.5,1414.2l-84.7,0l0,2.9c0,2.5,2,3.8,4,3.8l76.5,0
		c2.4,0,4.2-1.5,4.2-3.7L-154.5,1414.2L-154.5,1414.2z"/>
</g>
</svg>
