<?xml version="1.0" encoding="utf-8"?>
<!-- Generator: Adobe Illustrator 19.1.0, SVG Export Plug-In . SVG Version: 6.00 Build 0)  -->
<svg version="1.1" id="Слой_1" xmlns="http://www.w3.org/2000/svg" xmlns:xlink="http://www.w3.org/1999/xlink" x="0px" y="0px"
	 viewBox="-252 375.9 90 90" style="enable-background:new -252 375.9 90 90;" xml:space="preserve">
<style type="text/css">
	.st0{fill:none;stroke:#000000;stroke-width:5;stroke-linecap:round;stroke-linejoin:round;stroke-miterlimit:10;}
	.st1{fill:none;stroke:#000000;stroke-width:13.2133;stroke-linecap:round;stroke-linejoin:round;stroke-miterlimit:10;}
	.st2{fill:none;stroke:#000000;stroke-width:7;stroke-linecap:round;stroke-linejoin:round;stroke-miterlimit:10;}
	.st3{fill:none;stroke:#000000;stroke-width:3;stroke-linecap:round;stroke-linejoin:round;stroke-miterlimit:10;}
	.st4{fill:#FFFFFF;}
</style>
<polygon class="st0" points="329.3,1651 297.9,1651 288.1,1616.9 339.1,1616.9 "/>
<line class="st1" x1="293.9" y1="1611.2" x2="333.4" y2="1611.2"/>
<line class="st1" x1="298.9" y1="1601.1" x2="328.3" y2="1601.1"/>
<line class="st1" x1="305.8" y1="1590.7" x2="321.4" y2="1590.7"/>
<line class="st2" x1="313.6" y1="1589.7" x2="313.6" y2="1574.3"/>
<g>
	<path d="M317.2,1564.4c0,2-1.6,3.6-3.6,3.6c-2,0-3.6-1.6-3.6-3.6c0-2,3.6-9,3.6-9S317.2,1562.4,317.2,1564.4z"/>
</g>
<line class="st3" x1="323.1" y1="1651" x2="329.2" y2="1616.9"/>
<line class="st3" x1="304.1" y1="1651" x2="298" y2="1616.9"/>
<line class="st3" x1="310.6" y1="1651" x2="307.9" y2="1616.9"/>
<line class="st3" x1="316.6" y1="1651" x2="319.3" y2="1616.9"/>
<path class="st4" d="M-181.8,402.9h-3.9v-5.4h1c1.4,0,2.5-1.1,2.5-2.5c0-1.4-1.1-2.5-2.5-2.5h-2c-1.1-4.9-5.5-8.5-10.7-8.5
	c-1.6,0-3.1,0.3-4.5,1c-3-3.5-7.3-5.6-12-5.6c-4.7,0-9,2.1-12,5.6c-1.4-0.6-2.9-1-4.5-1c-5.2,0-9.6,3.6-10.7,8.5h-2.2
	c-1.4,0-2.5,1.1-2.5,2.5c0,1.4,1.1,2.5,2.5,2.5h1.3v60h-1.3c-1.4,0-2.5,1.1-2.5,2.5c0,1.4,1.1,2.5,2.5,2.5h58.6
	c1.4,0,2.5-1.1,2.5-2.5c0-1.4-1.1-2.5-2.5-2.5h-1v-5.4h3.9c7.5,0,13.5-6.1,13.5-13.5v-22.1C-168.2,408.9-174.3,402.9-181.8,402.9z
	 M-230.3,387.6c1.4,0,2.8,0.4,4,1.2c0.8,0.5,1.9,0.3,2.5-0.5c2.2-3.3,6-5.3,10-5.3c4,0,7.7,2,10,5.3c0.6,0.8,1.7,1,2.5,0.5
	c1.2-0.8,2.6-1.2,4-1.2c3.2,0,5.9,2,6.9,4.9h-6.2c-1,0-1.9,0.6-2.3,1.5c-0.2,0.3-0.3,0.6-0.3,1c0,4.5-3.7,8.2-8.2,8.2
	c-4.5,0-8.2-3.7-8.2-8.2c0-0.4-0.1-0.8-0.4-1.1c-0.4-0.8-1.2-1.4-2.2-1.4h-19C-236.2,389.6-233.5,387.6-230.3,387.6z M-237,457.5
	v-60h18c1.1,5.3,5.9,9.4,11.6,9.4c5.7,0,10.4-4,11.6-9.4h5.2v60H-237z M-177.3,438.5c0,2.5-2,4.5-4.5,4.5h-3.9v-31.1h3.9
	c2.5,0,4.5,2,4.5,4.5C-177.3,416.4-177.3,438.5-177.3,438.5z"/>
<path class="st4" d="M-227.6,412.1c-1.5,0-2.7,1.2-2.7,2.7v34.4c0,1.5,1.2,2.7,2.7,2.7c1.5,0,2.7-1.2,2.7-2.7v-34.4
	C-224.9,413.4-226.1,412.1-227.6,412.1z"/>
<path class="st4" d="M-213.8,412.1c-1.5,0-2.7,1.2-2.7,2.7v34.4c0,1.5,1.2,2.7,2.7,2.7c1.5,0,2.7-1.2,2.7-2.7v-34.4
	C-211.1,413.4-212.3,412.1-213.8,412.1z"/>
<path class="st4" d="M-200.1,412.1c-1.5,0-2.7,1.2-2.7,2.7v34.4c0,1.5,1.2,2.7,2.7,2.7c1.5,0,2.7-1.2,2.7-2.7v-34.4
	C-197.4,413.4-198.6,412.1-200.1,412.1z"/>
</svg>
